<svg width="55" height="55" viewBox="0 0 55 55" fill="none" xmlns="http://www.w3.org/2000/svg">
<g clip-path="url(#clip0_16_63)">
<path fill-rule="evenodd" clip-rule="evenodd" d="M0.915039 27.7699C0.915039 41.1934 10.6643 52.3556 23.415 54.6191V35.1184H16.665V27.6191H23.415V21.6184C23.415 14.8684 27.7643 11.1199 33.9158 11.1199C35.8643 11.1199 37.9658 11.4191 39.9143 11.7184V18.6191H36.465C33.1643 18.6191 32.415 20.2684 32.415 22.3699V27.6191H39.615L38.4158 35.1184H32.415V54.6191C45.1658 52.3556 54.915 41.1956 54.915 27.7699C54.915 12.8366 42.765 0.619141 27.915 0.619141C13.065 0.619141 0.915039 12.8366 0.915039 27.7699Z" fill="#6F6F6F"/>
</g>
<defs>
<clipPath id="clip0_16_63">
<rect width="54" height="54" fill="white" transform="translate(0.915039 0.619141)"/>
</clipPath>
</defs>
</svg>
