<svg width="55" height="55" viewBox="0 0 55 55" fill="none" xmlns="http://www.w3.org/2000/svg">
<path fill-rule="evenodd" clip-rule="evenodd" d="M17.4776 3.26764C20.1169 3.14614 20.9584 3.11914 27.6814 3.11914C34.4044 3.11914 35.2459 3.14839 37.8829 3.26764C40.5199 3.38689 42.3199 3.80764 43.8949 4.41739C45.5441 5.04064 47.0404 6.01489 48.2779 7.27489C49.5379 8.51014 50.5099 10.0041 51.1309 11.6556C51.7429 13.2306 52.1614 15.0306 52.2829 17.6631C52.4044 20.3069 52.4314 21.1484 52.4314 27.8691C52.4314 34.5921 52.4021 35.4336 52.2829 38.0729C52.1636 40.7054 51.7429 42.5054 51.1309 44.0804C50.5099 45.7321 49.5363 47.2286 48.2779 48.4656C47.0404 49.7256 45.5441 50.6976 43.8949 51.3186C42.3199 51.9306 40.5199 52.3491 37.8874 52.4706C35.2459 52.5921 34.4044 52.6191 27.6814 52.6191C20.9584 52.6191 20.1169 52.5899 17.4776 52.4706C14.8451 52.3514 13.0451 51.9306 11.4701 51.3186C9.81847 50.6976 8.32199 49.724 7.0849 48.4656C5.82575 47.2296 4.85135 45.7339 4.22965 44.0826C3.6199 42.5076 3.2014 40.7076 3.0799 38.0751C2.9584 35.4314 2.9314 34.5899 2.9314 27.8691C2.9314 21.1461 2.96065 20.3046 3.0799 17.6676C3.19915 15.0306 3.6199 13.2306 4.22965 11.6556C4.85227 10.0043 5.82741 8.5086 7.08715 7.27264C8.32249 6.01377 9.81746 5.03939 11.4679 4.41739C13.0429 3.80764 14.8429 3.38914 17.4754 3.26764H17.4776ZM37.6826 7.72264C35.0726 7.60339 34.2896 7.57864 27.6814 7.57864C21.0731 7.57864 20.2901 7.60339 17.6801 7.72264C15.2659 7.83289 13.9564 8.23564 13.0834 8.57539C11.9291 9.02539 11.1034 9.55864 10.2371 10.4249C9.416 11.2238 8.78405 12.1963 8.38765 13.2711C8.0479 14.1441 7.64515 15.4536 7.5349 17.8679C7.41565 20.4779 7.3909 21.2609 7.3909 27.8691C7.3909 34.4774 7.41565 35.2604 7.5349 37.8704C7.64515 40.2846 8.0479 41.5941 8.38765 42.4671C8.78365 43.5404 9.4159 44.5146 10.2371 45.3134C11.0359 46.1346 12.0101 46.7669 13.0834 47.1629C13.9564 47.5026 15.2659 47.9054 17.6801 48.0156C20.2901 48.1349 21.0709 48.1596 27.6814 48.1596C34.2919 48.1596 35.0726 48.1349 37.6826 48.0156C40.0969 47.9054 41.4064 47.5026 42.2794 47.1629C43.4336 46.7129 44.2594 46.1796 45.1256 45.3134C45.9469 44.5146 46.5791 43.5404 46.9751 42.4671C47.3149 41.5941 47.7176 40.2846 47.8279 37.8704C47.9471 35.2604 47.9719 34.4774 47.9719 27.8691C47.9719 21.2609 47.9471 20.4779 47.8279 17.8679C47.7176 15.4536 47.3149 14.1441 46.9751 13.2711C46.5251 12.1169 45.9919 11.2911 45.1256 10.4249C44.3267 9.6038 43.3542 8.97186 42.2794 8.57539C41.4064 8.23564 40.0969 7.83289 37.6826 7.72264ZM24.5201 35.4989C26.2856 36.2338 28.2515 36.333 30.082 35.7795C31.9125 35.226 33.494 34.0542 34.5565 32.4642C35.619 30.8742 36.0965 28.9646 35.9075 27.0616C35.7185 25.1587 34.8747 23.3803 33.5201 22.0304C32.6567 21.1675 31.6126 20.5067 30.4631 20.0957C29.3137 19.6847 28.0874 19.5337 26.8725 19.6535C25.6577 19.7733 24.4845 20.161 23.4375 20.7887C22.3904 21.4163 21.4956 22.2683 20.8173 23.2833C20.1391 24.2983 19.6943 25.451 19.5151 26.6586C19.3358 27.8661 19.4265 29.0983 19.7806 30.2666C20.1347 31.4348 20.7435 32.51 21.563 33.4148C22.3826 34.3195 23.3925 35.0313 24.5201 35.4989ZM18.6859 18.8736C19.8672 17.6923 21.2696 16.7553 22.8131 16.116C24.3565 15.4766 26.0108 15.1476 27.6814 15.1476C29.352 15.1476 31.0063 15.4766 32.5497 16.116C34.0932 16.7553 35.4956 17.6923 36.6769 18.8736C37.8582 20.0549 38.7953 21.4574 39.4346 23.0008C40.0739 24.5443 40.403 26.1985 40.403 27.8691C40.403 29.5398 40.0739 31.194 39.4346 32.7375C38.7953 34.2809 37.8582 35.6833 36.6769 36.8646C34.2911 39.2504 31.0554 40.5907 27.6814 40.5907C24.3074 40.5907 21.0717 39.2504 18.6859 36.8646C16.3001 34.4789 14.9598 31.2431 14.9598 27.8691C14.9598 24.4952 16.3001 21.2594 18.6859 18.8736ZM43.2244 17.0421C43.5171 16.766 43.7515 16.4339 43.9136 16.0656C44.0757 15.6972 44.1622 15.3001 44.1681 14.8977C44.174 14.4953 44.099 14.0959 43.9477 13.723C43.7964 13.3501 43.5719 13.0113 43.2873 12.7267C43.0027 12.4422 42.664 12.2176 42.2911 12.0663C41.9182 11.915 41.5187 11.8401 41.1163 11.846C40.7139 11.8518 40.3168 11.9384 39.9485 12.1005C39.5801 12.2626 39.248 12.4969 38.9719 12.7896C38.4348 13.359 38.1408 14.1152 38.1522 14.8977C38.1636 15.6803 38.4796 16.4276 39.033 16.981C39.5864 17.5345 40.3337 17.8504 41.1163 17.8618C41.8989 17.8732 42.6551 17.5792 43.2244 17.0421Z" fill="#6F6F6F"/>
</svg>
