<svg width="46" height="37" viewBox="0 0 46 37" fill="none" xmlns="http://www.w3.org/2000/svg">
<path d="M40.6814 0.826172H4.6814C2.19965 0.826172 0.181396 2.84442 0.181396 5.32617V32.3262C0.181396 34.8079 2.19965 36.8262 4.6814 36.8262H40.6814C43.1631 36.8262 45.1814 34.8079 45.1814 32.3262V5.32617C45.1814 2.84442 43.1631 0.826172 40.6814 0.826172ZM40.6814 5.32617V6.47592L22.6814 20.4777L4.6814 6.47817V5.32617H40.6814ZM4.6814 32.3262V12.1752L21.2999 25.1014C21.6939 25.4109 22.1804 25.5791 22.6814 25.5791C23.1824 25.5791 23.6689 25.4109 24.0629 25.1014L40.6814 12.1752L40.6859 32.3262H4.6814Z" fill="#6F6F6F"/>
</svg>
