<svg width="409" height="86" viewBox="0 0 409 86" fill="none" xmlns="http://www.w3.org/2000/svg">
<path d="M50.4494 2.2933L3.82893 9.70028C3.34331 9.77743 2.98584 10.1962 2.98584 10.6879V74.8058C2.98584 75.2975 3.34331 75.7162 3.82893 75.7934L50.4422 83.1992C50.6005 83.2244 50.7625 83.2111 50.9146 83.1606L108.543 63.9999C108.952 63.864 109.227 63.4817 109.227 63.0509V21.5617C109.227 21.1259 108.945 20.7403 108.53 20.6086L50.9087 2.32773C50.7604 2.28067 50.6031 2.26888 50.4494 2.2933Z" stroke="white" stroke-width="4"/>
<path d="M24.9771 7.01102V78.4827" stroke="white" stroke-width="4"/>
<path fill-rule="evenodd" clip-rule="evenodd" d="M52.8318 9.66654C52.8341 9.62743 52.8352 9.58803 52.8352 9.54835C52.8352 9.50867 52.8341 9.46926 52.8318 9.43016V9.38846H52.8289C52.7475 8.35675 51.8844 7.54492 50.8318 7.54492C49.7792 7.54492 48.9161 8.35675 48.8347 9.38846H48.8318V9.43021C48.8295 9.4693 48.8284 9.50869 48.8284 9.54835C48.8284 9.58801 48.8295 9.6274 48.8318 9.66649V83.3861H52.8318V9.66654Z" fill="white"/>
<path fill-rule="evenodd" clip-rule="evenodd" d="M60.1859 13.4277C60.1859 13.5462 60.1753 13.6623 60.1548 13.7749V71.722C60.1771 71.8394 60.1887 71.9605 60.1887 72.0844C60.1887 73.1524 59.3229 74.0183 58.2548 74.0183C57.1868 74.0183 56.3209 73.1524 56.3209 72.0844C56.3209 71.9605 56.3326 71.8393 56.3548 71.7219V13.8047C56.3307 13.6828 56.3181 13.5567 56.3181 13.4277C56.3181 12.3596 57.184 11.4938 58.252 11.4938C59.3201 11.4938 60.1859 12.3596 60.1859 13.4277Z" fill="white"/>
<path fill-rule="evenodd" clip-rule="evenodd" d="M19.7435 37.3909C19.7435 37.4119 19.7329 37.4324 19.7125 37.4523V47.685C19.7347 47.7057 19.7464 47.7271 19.7464 47.749C19.7464 47.9376 18.8805 48.0905 17.8125 48.0905C16.7444 48.0905 15.8785 47.9376 15.8785 47.749C15.8785 47.7271 15.8902 47.7057 15.9125 47.685V37.4575C15.8884 37.436 15.8757 37.4137 15.8757 37.3909C15.8757 37.2023 16.7416 37.0494 17.8096 37.0494C18.8777 37.0494 19.7435 37.2023 19.7435 37.3909Z" fill="white"/>
<path fill-rule="evenodd" clip-rule="evenodd" d="M34.0758 37.577C34.0758 37.598 34.0652 37.6185 34.0447 37.6384V47.8711C34.067 47.8918 34.0786 47.9132 34.0786 47.9351C34.0786 48.1237 33.2128 48.2766 32.1447 48.2766C31.0767 48.2766 30.2108 48.1237 30.2108 47.9351C30.2108 47.9132 30.2225 47.8918 30.2447 47.8711V37.6436C30.2206 37.6221 30.208 37.5998 30.208 37.577C30.208 37.3884 31.0738 37.2355 32.1419 37.2355C33.21 37.2355 34.0758 37.3884 34.0758 37.577Z" fill="white"/>
<path fill-rule="evenodd" clip-rule="evenodd" d="M67.5394 14.9292C67.5394 15.0409 67.5288 15.1502 67.5084 15.2564V69.8692C67.5306 69.9799 67.5423 70.094 67.5423 70.2108C67.5423 71.2174 66.6764 72.0334 65.6084 72.0334C64.5403 72.0334 63.6744 71.2174 63.6744 70.2108C63.6744 70.094 63.6861 69.9798 63.7084 69.8692V15.2845C63.6843 15.1695 63.6716 15.0507 63.6716 14.9292C63.6716 13.9226 64.5375 13.1065 65.6055 13.1065C66.6736 13.1065 67.5394 13.9226 67.5394 14.9292Z" fill="white"/>
<path fill-rule="evenodd" clip-rule="evenodd" d="M74.8932 16.8028C74.8932 16.9077 74.8825 17.0104 74.8621 17.11V68.3886C74.8844 68.4925 74.896 68.5997 74.896 68.7093C74.896 69.6545 74.0302 70.4207 72.9621 70.4207C71.894 70.4207 71.0282 69.6545 71.0282 68.7093C71.0282 68.5997 71.0399 68.4925 71.0621 68.3886V17.1364C71.038 17.0285 71.0254 16.9169 71.0254 16.8028C71.0254 15.8576 71.8912 15.0914 72.9593 15.0914C74.0274 15.0914 74.8932 15.8576 74.8932 16.8028Z" fill="white"/>
<path fill-rule="evenodd" clip-rule="evenodd" d="M82.2467 18.4245C82.2467 18.5223 82.2361 18.6181 82.2156 18.7111V66.5404C82.2379 66.6373 82.2495 66.7373 82.2495 66.8396C82.2495 67.7211 81.3837 68.4358 80.3156 68.4358C79.2476 68.4358 78.3817 67.7211 78.3817 66.8396C78.3817 66.7373 78.3934 66.6373 78.4156 66.5404V18.7357C78.3915 18.635 78.3789 18.531 78.3789 18.4245C78.3789 17.5429 79.2447 16.8282 80.3128 16.8282C81.3809 16.8282 82.2467 17.5429 82.2467 18.4245Z" fill="white"/>
<path fill-rule="evenodd" clip-rule="evenodd" d="M89.6002 20.174C89.6002 20.2651 89.5896 20.3542 89.5691 20.4407V64.9357C89.5914 65.0259 89.603 65.1189 89.603 65.214C89.603 66.0341 88.7372 66.699 87.6691 66.699C86.6011 66.699 85.7352 66.0341 85.7352 65.214C85.7352 65.1189 85.7469 65.0259 85.7691 64.9357V20.4635C85.7451 20.3699 85.7324 20.2731 85.7324 20.174C85.7324 19.3539 86.5983 18.6891 87.6663 18.6891C88.7344 18.6891 89.6002 19.3539 89.6002 20.174Z" fill="white"/>
<path fill-rule="evenodd" clip-rule="evenodd" d="M96.954 21.9198C96.954 22.0037 96.9433 22.0859 96.9229 22.1657V63.2116C96.9452 63.2947 96.9568 63.3805 96.9568 63.4683C96.9568 64.2248 96.091 64.8381 95.0229 64.8381C93.9548 64.8381 93.089 64.2248 93.089 63.4683C93.089 63.3805 93.1006 63.2947 93.1229 63.2115V22.1868C93.0988 22.1004 93.0862 22.0112 93.0862 21.9198C93.0862 21.1632 93.952 20.5499 95.0201 20.5499C96.0882 20.5499 96.954 21.1632 96.954 21.9198Z" fill="white"/>
<path fill-rule="evenodd" clip-rule="evenodd" d="M104.308 23.6655C104.308 23.7424 104.297 23.8177 104.276 23.8908V61.4874C104.299 61.5636 104.31 61.6422 104.31 61.7225C104.31 62.4155 103.444 62.9773 102.376 62.9773C101.308 62.9773 100.443 62.4155 100.443 61.7225C100.443 61.6422 100.454 61.5636 100.476 61.4874V23.9101C100.452 23.831 100.44 23.7492 100.44 23.6655C100.44 22.9725 101.306 22.4108 102.374 22.4108C103.442 22.4108 104.308 22.9725 104.308 23.6655Z" fill="white"/>
<path d="M145.034 45.9016C145.034 43.4536 145.586 41.2576 146.69 39.3136C147.794 37.3456 149.294 35.8096 151.19 34.7056C153.11 33.6016 155.234 33.0496 157.562 33.0496C160.298 33.0496 162.686 33.7096 164.726 35.0296C166.766 36.3496 168.254 38.2216 169.19 40.6456H165.266C164.57 39.1336 163.562 37.9696 162.242 37.1536C160.946 36.3376 159.386 35.9296 157.562 35.9296C155.81 35.9296 154.238 36.3376 152.846 37.1536C151.454 37.9696 150.362 39.1336 149.57 40.6456C148.778 42.1336 148.382 43.8856 148.382 45.9016C148.382 47.8936 148.778 49.6456 149.57 51.1576C150.362 52.6456 151.454 53.7976 152.846 54.6136C154.238 55.4296 155.81 55.8376 157.562 55.8376C159.386 55.8376 160.946 55.4416 162.242 54.6496C163.562 53.8336 164.57 52.6696 165.266 51.1576H169.19C168.254 53.5576 166.766 55.4176 164.726 56.7376C162.686 58.0336 160.298 58.6816 157.562 58.6816C155.234 58.6816 153.11 58.1416 151.19 57.0616C149.294 55.9576 147.794 54.4336 146.69 52.4896C145.586 50.5456 145.034 48.3496 145.034 45.9016ZM185.442 58.7176C183.114 58.7176 180.99 58.1776 179.07 57.0976C177.15 55.9936 175.626 54.4696 174.498 52.5256C173.394 50.5576 172.842 48.3496 172.842 45.9016C172.842 43.4536 173.394 41.2576 174.498 39.3136C175.626 37.3456 177.15 35.8216 179.07 34.7416C180.99 33.6376 183.114 33.0856 185.442 33.0856C187.794 33.0856 189.93 33.6376 191.85 34.7416C193.77 35.8216 195.282 37.3336 196.386 39.2776C197.49 41.2216 198.042 43.4296 198.042 45.9016C198.042 48.3736 197.49 50.5816 196.386 52.5256C195.282 54.4696 193.77 55.9936 191.85 57.0976C189.93 58.1776 187.794 58.7176 185.442 58.7176ZM185.442 55.8736C187.194 55.8736 188.766 55.4656 190.158 54.6496C191.574 53.8336 192.678 52.6696 193.47 51.1576C194.286 49.6456 194.694 47.8936 194.694 45.9016C194.694 43.8856 194.286 42.1336 193.47 40.6456C192.678 39.1336 191.586 37.9696 190.194 37.1536C188.802 36.3376 187.218 35.9296 185.442 35.9296C183.666 35.9296 182.082 36.3376 180.69 37.1536C179.298 37.9696 178.194 39.1336 177.378 40.6456C176.586 42.1336 176.19 43.8856 176.19 45.9016C176.19 47.8936 176.586 49.6456 177.378 51.1576C178.194 52.6696 179.298 53.8336 180.69 54.6496C182.106 55.4656 183.69 55.8736 185.442 55.8736ZM222.095 58.4656H218.819L205.643 38.4856V58.4656H202.367V33.3376H205.643L218.819 53.2816V33.3376H222.095V58.4656ZM243.124 33.3736V36.0376H236.284V58.4656H233.008V36.0376H226.132V33.3736H243.124ZM261.988 52.8856H251.044L249.028 58.4656H245.572L254.644 33.5176H258.424L267.46 58.4656H264.004L261.988 52.8856ZM261.052 50.2216L256.516 37.5496L251.98 50.2216H261.052ZM274.69 33.3736V58.4656H271.414V33.3736H274.69ZM293.485 58.4656L287.509 48.2056H283.549V58.4656H280.273V33.3736H288.373C290.269 33.3736 291.865 33.6976 293.161 34.3456C294.481 34.9936 295.465 35.8696 296.113 36.9736C296.761 38.0776 297.085 39.3376 297.085 40.7536C297.085 42.4816 296.581 44.0056 295.573 45.3256C294.589 46.6456 293.101 47.5216 291.109 47.9536L297.409 58.4656H293.485ZM283.549 45.5776H288.373C290.149 45.5776 291.481 45.1456 292.369 44.2816C293.257 43.3936 293.701 42.2176 293.701 40.7536C293.701 39.2656 293.257 38.1136 292.369 37.2976C291.505 36.4816 290.173 36.0736 288.373 36.0736H283.549V45.5776Z" fill="#6F6F6F"/>
<path d="M326.59 33.3736V58.4656H323.314V47.0896H310.534V58.4656H307.258V33.3736H310.534V44.3896H323.314V33.3736H326.59ZM343.56 58.7176C341.232 58.7176 339.108 58.1776 337.188 57.0976C335.268 55.9936 333.744 54.4696 332.616 52.5256C331.512 50.5576 330.96 48.3496 330.96 45.9016C330.96 43.4536 331.512 41.2576 332.616 39.3136C333.744 37.3456 335.268 35.8216 337.188 34.7416C339.108 33.6376 341.232 33.0856 343.56 33.0856C345.912 33.0856 348.048 33.6376 349.968 34.7416C351.888 35.8216 353.4 37.3336 354.504 39.2776C355.608 41.2216 356.16 43.4296 356.16 45.9016C356.16 48.3736 355.608 50.5816 354.504 52.5256C353.4 54.4696 351.888 55.9936 349.968 57.0976C348.048 58.1776 345.912 58.7176 343.56 58.7176ZM343.56 55.8736C345.312 55.8736 346.884 55.4656 348.276 54.6496C349.692 53.8336 350.796 52.6696 351.588 51.1576C352.404 49.6456 352.812 47.8936 352.812 45.9016C352.812 43.8856 352.404 42.1336 351.588 40.6456C350.796 39.1336 349.704 37.9696 348.312 37.1536C346.92 36.3376 345.336 35.9296 343.56 35.9296C341.784 35.9296 340.2 36.3376 338.808 37.1536C337.416 37.9696 336.312 39.1336 335.496 40.6456C334.704 42.1336 334.308 43.8856 334.308 45.9016C334.308 47.8936 334.704 49.6456 335.496 51.1576C336.312 52.6696 337.416 53.8336 338.808 54.6496C340.224 55.4656 341.808 55.8736 343.56 55.8736ZM385.936 33.5536V58.4656H382.66V39.8896L374.38 58.4656H372.076L363.76 39.8536V58.4656H360.484V33.5536H364.012L373.228 54.1456L382.444 33.5536H385.936ZM394.768 36.0376V44.4256H403.912V47.1256H394.768V55.7656H404.992V58.4656H391.492V33.3376H404.992V36.0376H394.768Z" fill="white"/>
</svg>
