<svg width="112" height="86" viewBox="0 0 112 86" fill="none" xmlns="http://www.w3.org/2000/svg">
<path d="M50.3581 2.2933L3.73762 9.70028C3.252 9.77743 2.89453 10.1962 2.89453 10.6879V74.8058C2.89453 75.2975 3.252 75.7162 3.73762 75.7934L50.3509 83.1992C50.5092 83.2244 50.6712 83.2111 50.8233 83.1606L108.452 63.9999C108.86 63.864 109.136 63.4817 109.136 63.0509V21.5617C109.136 21.1259 108.854 20.7403 108.439 20.6086L50.8174 2.32773C50.6691 2.28067 50.5118 2.26888 50.3581 2.2933Z" stroke="white" stroke-width="4"/>
<path d="M24.8858 7.01102V78.4827" stroke="white" stroke-width="4"/>
<path fill-rule="evenodd" clip-rule="evenodd" d="M52.7404 9.66654C52.7427 9.62743 52.7438 9.58803 52.7438 9.54835C52.7438 9.50867 52.7427 9.46926 52.7404 9.43016V9.38846H52.7375C52.6561 8.35675 51.793 7.54492 50.7404 7.54492C49.6878 7.54492 48.8247 8.35675 48.7433 9.38846H48.7404V9.43021C48.7381 9.4693 48.737 9.50869 48.737 9.54835C48.737 9.58801 48.7381 9.6274 48.7404 9.66649V83.3861H52.7404V9.66654Z" fill="white"/>
<path fill-rule="evenodd" clip-rule="evenodd" d="M60.0946 13.4277C60.0946 13.5462 60.0839 13.6623 60.0635 13.7749V71.722C60.0857 71.8394 60.0974 71.9605 60.0974 72.0844C60.0974 73.1524 59.2315 74.0183 58.1635 74.0183C57.0954 74.0183 56.2296 73.1524 56.2296 72.0844C56.2296 71.9605 56.2412 71.8393 56.2635 71.7219V13.8047C56.2394 13.6828 56.2267 13.5567 56.2267 13.4277C56.2267 12.3596 57.0926 11.4938 58.1607 11.4938C59.2287 11.4938 60.0946 12.3596 60.0946 13.4277Z" fill="white"/>
<path fill-rule="evenodd" clip-rule="evenodd" d="M19.6521 37.3909C19.6521 37.4119 19.6415 37.4324 19.6211 37.4523V47.685C19.6433 47.7057 19.655 47.7271 19.655 47.749C19.655 47.9376 18.7891 48.0905 17.7211 48.0905C16.653 48.0905 15.7871 47.9376 15.7871 47.749C15.7871 47.7271 15.7988 47.7057 15.8211 47.685V37.4575C15.797 37.436 15.7843 37.4137 15.7843 37.3909C15.7843 37.2023 16.6502 37.0494 17.7182 37.0494C18.7863 37.0494 19.6521 37.2023 19.6521 37.3909Z" fill="white"/>
<path fill-rule="evenodd" clip-rule="evenodd" d="M33.9846 37.577C33.9846 37.598 33.974 37.6185 33.9535 37.6384V47.8711C33.9758 47.8918 33.9874 47.9132 33.9874 47.9351C33.9874 48.1237 33.1216 48.2766 32.0535 48.2766C30.9855 48.2766 30.1196 48.1237 30.1196 47.9351C30.1196 47.9132 30.1313 47.8918 30.1535 47.8711V37.6436C30.1294 37.6221 30.1168 37.5998 30.1168 37.577C30.1168 37.3884 30.9826 37.2355 32.0507 37.2355C33.1188 37.2355 33.9846 37.3884 33.9846 37.577Z" fill="white"/>
<path fill-rule="evenodd" clip-rule="evenodd" d="M67.4482 14.9292C67.4482 15.0409 67.4375 15.1502 67.4171 15.2564V69.8692C67.4393 69.9799 67.451 70.094 67.451 70.2108C67.451 71.2174 66.5852 72.0334 65.5171 72.0334C64.449 72.0334 63.5832 71.2174 63.5832 70.2108C63.5832 70.094 63.5948 69.9798 63.6171 69.8692V15.2845C63.593 15.1695 63.5804 15.0507 63.5804 14.9292C63.5804 13.9226 64.4462 13.1065 65.5143 13.1065C66.5823 13.1065 67.4482 13.9226 67.4482 14.9292Z" fill="white"/>
<path fill-rule="evenodd" clip-rule="evenodd" d="M74.8018 16.8028C74.8018 16.9077 74.7911 17.0104 74.7707 17.11V68.3886C74.793 68.4925 74.8046 68.5997 74.8046 68.7093C74.8046 69.6545 73.9388 70.4207 72.8707 70.4207C71.8026 70.4207 70.9368 69.6545 70.9368 68.7093C70.9368 68.5997 70.9485 68.4925 70.9707 68.3886V17.1364C70.9466 17.0285 70.934 16.9169 70.934 16.8028C70.934 15.8576 71.7998 15.0914 72.8679 15.0914C73.936 15.0914 74.8018 15.8576 74.8018 16.8028Z" fill="white"/>
<path fill-rule="evenodd" clip-rule="evenodd" d="M82.1554 18.4245C82.1554 18.5223 82.1448 18.6181 82.1243 18.7111V66.5404C82.1466 66.6373 82.1582 66.7373 82.1582 66.8396C82.1582 67.7211 81.2924 68.4358 80.2243 68.4358C79.1563 68.4358 78.2904 67.7211 78.2904 66.8396C78.2904 66.7373 78.3021 66.6373 78.3243 66.5404V18.7357C78.3002 18.635 78.2876 18.531 78.2876 18.4245C78.2876 17.5429 79.1535 16.8282 80.2215 16.8282C81.2896 16.8282 82.1554 17.5429 82.1554 18.4245Z" fill="white"/>
<path fill-rule="evenodd" clip-rule="evenodd" d="M89.509 20.174C89.509 20.2651 89.4984 20.3542 89.478 20.4407V64.9357C89.5002 65.0259 89.5119 65.1189 89.5119 65.214C89.5119 66.0341 88.646 66.699 87.578 66.699C86.5099 66.699 85.6441 66.0341 85.6441 65.214C85.6441 65.1189 85.6557 65.0259 85.678 64.9357V20.4635C85.6539 20.3699 85.6412 20.2731 85.6412 20.174C85.6412 19.3539 86.5071 18.6891 87.5751 18.6891C88.6432 18.6891 89.509 19.3539 89.509 20.174Z" fill="white"/>
<path fill-rule="evenodd" clip-rule="evenodd" d="M96.8627 21.9198C96.8627 22.0037 96.852 22.0859 96.8316 22.1657V63.2116C96.8538 63.2947 96.8655 63.3805 96.8655 63.4683C96.8655 64.2248 95.9996 64.8381 94.9316 64.8381C93.8635 64.8381 92.9977 64.2248 92.9977 63.4683C92.9977 63.3805 93.0093 63.2947 93.0316 63.2115V22.1868C93.0075 22.1004 92.9949 22.0112 92.9949 21.9198C92.9949 21.1632 93.8607 20.5499 94.9288 20.5499C95.9968 20.5499 96.8627 21.1632 96.8627 21.9198Z" fill="white"/>
<path fill-rule="evenodd" clip-rule="evenodd" d="M104.216 23.6655C104.216 23.7424 104.206 23.8177 104.185 23.8908V61.4874C104.207 61.5636 104.219 61.6422 104.219 61.7225C104.219 62.4155 103.353 62.9773 102.285 62.9773C101.217 62.9773 100.351 62.4155 100.351 61.7225C100.351 61.6422 100.363 61.5636 100.385 61.4874V23.9101C100.361 23.831 100.348 23.7492 100.348 23.6655C100.348 22.9725 101.214 22.4108 102.282 22.4108C103.35 22.4108 104.216 22.9725 104.216 23.6655Z" fill="white"/>
</svg>
