<svg width="41" height="42" viewBox="0 0 41 42" fill="none" xmlns="http://www.w3.org/2000/svg">
<path d="M39.7839 32.3912L30.6376 24.0752C30.2053 23.6823 29.6372 23.4727 29.0532 23.4907C28.4692 23.5088 27.9151 23.7531 27.5079 24.172L22.1236 29.7092C20.8276 29.4617 18.2221 28.6495 15.5401 25.9742C12.8581 23.29 12.0459 20.6777 11.8051 19.3907L17.3379 14.0042C17.7573 13.5973 18.0019 13.0431 18.02 12.4589C18.0381 11.8748 17.8281 11.3066 17.4346 10.8745L9.12088 1.73047C8.72723 1.29702 8.18011 1.03411 7.59573 0.997556C7.01134 0.961005 6.43573 1.1537 5.99113 1.53472L1.10863 5.72197C0.719635 6.11238 0.487453 6.63198 0.456134 7.18222C0.422384 7.74472 -0.221115 21.0692 10.1109 31.4057C19.1244 40.417 30.4149 41.0762 33.5244 41.0762C33.9789 41.0762 34.2579 41.0627 34.3321 41.0582C34.8823 41.0274 35.4016 40.7942 35.7901 40.4035L39.9751 35.5187C40.3577 35.0755 40.5518 34.5004 40.516 33.916C40.4803 33.3317 40.2176 32.7845 39.7839 32.3912Z" fill="#6F6F6F"/>
</svg>
